<svg width="106" height="36" viewBox="0 0 106 36" fill="none" xmlns="http://www.w3.org/2000/svg">
<path d="M18.5823 23.8321L20.1566 22.8844C21.2648 24.9315 22.5452 25.955 23.998 25.955C24.6082 25.9576 25.2095 25.8078 25.7477 25.5191C26.2933 25.2287 26.7089 24.8391 26.9946 24.3501C27.275 23.8805 27.4234 23.3434 27.4237 22.7959C27.4237 22.1725 27.2139 21.5617 26.7942 20.9635C26.2149 20.1378 25.157 19.1441 23.6203 17.9823C22.0753 16.8119 21.1139 15.9652 20.736 15.4423C20.081 14.5663 19.7536 13.6185 19.7536 12.5989C19.7536 11.7902 19.9467 11.0531 20.3329 10.3875C20.7192 9.72193 21.2629 9.19746 21.9641 8.8141C22.665 8.43078 23.4517 8.23288 24.2499 8.23906C25.1094 8.23546 25.9546 8.46002 26.6998 8.88996C27.4593 9.32389 28.2631 10.1221 29.1113 11.2845L27.5987 12.4333C26.9019 11.5058 26.3077 10.895 25.816 10.6008C25.3316 10.3078 24.7759 10.1548 24.2103 10.1586C23.462 10.1586 22.8511 10.3861 22.3777 10.841C21.9043 11.2959 21.6677 11.8559 21.668 12.5211C21.6682 12.9266 21.7543 13.3274 21.9205 13.697C22.0884 14.0761 22.3949 14.489 22.8399 14.9355C23.0831 15.1714 23.8806 15.7909 25.2323 16.7941C26.8361 17.982 27.9365 19.0393 28.5336 19.9661C29.1307 20.8929 29.4283 21.8231 29.4263 22.7565C29.4263 24.1047 28.9162 25.2757 27.8961 26.2697C26.876 27.2637 25.6354 27.7605 24.1743 27.7603C23.0492 27.7603 22.0291 27.4591 21.114 26.8567C20.1989 26.2542 19.355 25.246 18.5823 23.8321Z" fill="#FFA700"/>
<path d="M24.1741 27.8246C23.0421 27.8246 22.0012 27.5172 21.0798 26.911C20.1584 26.3048 19.3017 25.2803 18.5279 23.8635L18.4995 23.8112L20.1802 22.7992L20.2109 22.8562C21.3023 24.8725 22.5766 25.8947 23.9978 25.8947C24.5981 25.8967 25.1896 25.7495 25.7194 25.4661C26.2525 25.1822 26.6639 24.7967 26.9408 24.3203C27.2151 23.8597 27.3602 23.3332 27.3608 22.7966C27.3608 22.1894 27.1528 21.5849 26.7421 20.9999C26.1693 20.1834 25.106 19.1844 23.5818 18.0313C22.0401 16.8604 21.0656 16.0024 20.6856 15.4774C20.0254 14.5953 19.6916 13.6261 19.6916 12.5976C19.6916 11.7814 19.8897 11.0268 20.2792 10.3547C20.6688 9.68262 21.226 9.14568 21.9341 8.75812C22.6445 8.37082 23.4412 8.17047 24.2497 8.17579C25.1197 8.17316 25.9751 8.40039 26.7299 8.83464C27.4938 9.27089 28.3119 10.0824 29.1613 11.2468L29.1969 11.2961L27.5879 12.5217L27.5506 12.472C26.8616 11.5561 26.2677 10.945 25.7861 10.6555C25.3109 10.369 24.7664 10.219 24.212 10.2219C23.4857 10.2219 22.8823 10.4458 22.4221 10.887C21.9619 11.3282 21.7288 11.8781 21.7288 12.523C21.7293 12.9196 21.8133 13.3115 21.9754 13.6731C22.1405 14.0438 22.4445 14.4542 22.8819 14.8931C23.1216 15.125 23.9248 15.7487 25.2678 16.7444C26.8699 17.9313 27.985 19.0038 28.5829 19.9327C29.1808 20.8615 29.4871 21.8164 29.4871 22.7592C29.4871 24.1173 28.9658 25.3154 27.9378 26.3171C26.9098 27.3188 25.6451 27.8246 24.1741 27.8246ZM18.6652 23.8546C19.4216 25.2273 20.2564 26.2203 21.1475 26.807C22.0484 27.3996 23.0668 27.7013 24.1741 27.7013C25.6118 27.7013 26.8481 27.2045 27.8527 26.2276C28.8572 25.2508 29.3643 24.0815 29.3643 22.7565C29.3643 21.8383 29.0672 20.9098 28.4799 19.9973C27.8926 19.0847 26.7854 18.0197 25.1955 16.8431C23.8479 15.8438 23.0407 15.2171 22.7961 14.9802C22.3471 14.5297 22.0335 14.1067 21.8632 13.7215C21.6941 13.344 21.6065 12.9349 21.606 12.5211C21.606 11.841 21.8519 11.2603 22.3366 10.7956C22.8212 10.3309 23.4514 10.096 24.212 10.096C24.7885 10.0933 25.3547 10.2495 25.8488 10.5475C26.3357 10.84 26.9283 11.4448 27.611 12.3465L29.0246 11.2709C28.1993 10.1474 27.407 9.36397 26.6682 8.94262C25.932 8.51891 25.0977 8.29716 24.249 8.29968C23.4612 8.2946 22.6849 8.48981 21.9926 8.8671C21.3049 9.24339 20.7642 9.7651 20.3855 10.4173C20.0069 11.0695 19.8147 11.8036 19.8147 12.5976C19.8147 13.5986 20.1409 14.5426 20.7846 15.4039C21.1577 15.9196 22.124 16.7699 23.6567 17.9316C25.1895 19.0933 26.2647 20.1006 26.8438 20.9277C27.269 21.5339 27.4849 22.1626 27.4849 22.7959C27.4841 23.3543 27.3333 23.9021 27.0481 24.3816C26.758 24.8785 26.3304 25.2793 25.7768 25.5741C25.2291 25.8669 24.6177 26.0191 23.9971 26.0173C22.5406 26.0173 21.2406 24.9924 20.1323 22.9698L18.6652 23.8546Z" fill="#C16911"/>
<path d="M31.7888 8.70544H33.6398V27.2946H31.7888V8.70544Z" fill="#FFA700"/>
<path d="M33.7022 27.3568H31.7271V8.64316H33.7022V27.3568ZM31.8508 27.2326H33.5784V8.76737H31.8508V27.2326Z" fill="#C16911"/>
<path d="M36.6077 8.70544H47.2249V10.525H38.4597V16.3509H47.1499V18.1708H38.4597V25.475H47.1499V27.2946H36.6077V8.70544Z" fill="#FFA700"/>
<path d="M47.211 27.3568H36.5449V8.64316H47.2859V10.5872H38.5207V16.2889H47.211V18.2327H38.5207V25.4128H47.211V27.3568ZM36.6694 27.2326H47.0875V25.537H38.3973V18.1085H47.0875V16.4128H38.3973V10.463H47.1628V8.76737H36.6694V27.2326Z" fill="#C16911"/>
<path d="M48.2903 27.2946L50.9428 8.70544H51.2439L58.7754 23.9586L66.2346 8.70544H66.5318L69.1975 27.2946H67.3818L65.5513 14.0004L59.0006 27.2946H58.5275L51.8986 13.8994L50.0802 27.2946H48.2903Z" fill="#FFA700"/>
<path d="M69.2689 27.3568H67.3281L65.5176 14.2104L59.0392 27.3568H58.4892L58.4721 27.3237L51.9329 14.1077L50.1328 27.3575H48.218L50.8884 8.64383H51.2813L58.7751 23.8188L66.1961 8.64383H66.5866L66.5942 8.69716L69.2689 27.3568ZM67.4357 27.2326H69.1259L66.4776 8.76738H66.273L58.7758 24.0987L51.2053 8.76738H50.9967L48.3616 27.2326H50.0248L51.8646 13.6907L58.5662 27.2326H58.9623L65.585 13.7917L67.4357 27.2326Z" fill="#C16911"/>
<path d="M79.1167 8.70544L87.7565 27.2946H85.7569L82.8429 21.1781H74.8617L71.9758 27.2946H69.9102L78.6635 8.70544H79.1167ZM78.883 12.6535L75.7085 19.3825H82.0423L78.883 12.6535Z" fill="#FFA700"/>
<path d="M87.8539 27.3568H85.718L82.804 21.2404H74.9011L72.0148 27.3568H69.8125L78.6242 8.64316H79.1561L79.1729 8.67893L87.8539 27.3568ZM85.7959 27.2326H87.6595L79.0762 8.76737H78.7021L70.0079 27.2326H71.9365L74.8228 21.1162H82.8819L85.7959 27.2326ZM82.1398 19.4457H75.6108L78.8831 12.5094L82.1398 19.4457ZM75.8059 19.3218H81.9447L78.8831 12.8003L75.8059 19.3218Z" fill="#C16911"/>
<path d="M89.3511 27.2946V8.70544H89.7542L102.084 22.9553V8.70544H103.91V27.2946H103.495L91.2655 13.2183V27.2946H89.3511Z" fill="#FFA700"/>
<path d="M103.972 27.3568H103.467L91.3275 13.3839V27.3568H89.2893V8.64316H89.7825L89.801 8.66469L102.022 22.7896V8.64548H103.972V27.3568ZM103.523 27.2326H103.849V8.76737H102.146V23.1209L89.7261 8.76737H89.4131V27.2326H91.2037V13.0527L103.523 27.2326Z" fill="#C16911"/>
<path d="M15.3368 17.1422L4.91206 9.51035L13.9767 2.86989L14.0236 2.83677L14.1031 2.77814V2.67877L14.0965 1.05732L14.0949 0.676392L13.7882 0.900975L2.36778 9.26126L2.24233 9.35334L2.02808 9.51035L2.24266 9.6677L8.81713 14.481L8.80788 20.1251L2.51336 24.7334L2.41829 24.8029L2.25586 24.9222L2.38032 25.0808L9.89268 34.6306L10.0934 34.8857L10.4374 35.3233L10.4394 34.7661L10.5054 20.9946L15.2123 17.5497L15.3378 17.4579L15.552 17.3006L15.3368 17.1422ZM12.6674 17.2996L10.51 18.8789L10.5176 15.7258L12.6674 17.2996ZM8.79171 22.2487L8.7587 30.4338L4.68427 25.2561L8.79171 22.2487Z" fill="#FFA700"/>
<path d="M10.5027 35.5134L9.8408 34.6717L2.1614 24.9096L2.47601 24.68L8.74181 20.0916L8.75105 14.5145L1.91479 9.51068L2.32877 9.20859L14.1595 0.546539L14.1691 2.80993L14.0156 2.92322L5.02393 9.51035L15.6636 17.2996L15.2519 17.602L10.5704 21.0284L10.5044 34.7664L10.5027 35.5134ZM2.34858 24.9351L10.3707 35.1334V34.7658L10.4367 20.9608L10.4638 20.9413L15.4394 17.2996L4.8001 9.51035L4.87306 9.45669L13.9377 2.81557L14.0367 2.74236L14.0281 0.805904L2.13994 9.51035L8.88311 14.4459L8.87386 20.1575L8.84679 20.1774L2.34858 24.9351ZM8.82236 30.6236L4.58882 25.2428L8.85703 22.1182L8.82236 30.6236ZM4.77864 25.269L8.69196 30.2426L8.72498 22.3782L4.77864 25.269ZM10.4436 19.0085L10.4519 15.5943L12.7793 17.2982L10.4436 19.0085ZM10.5833 15.8547L10.5763 18.7484L12.5551 17.2996L10.5833 15.8547Z" fill="#C16911"/>
</svg>
