<svg width="27" height="27" viewBox="0 0 27 27" fill="none" xmlns="http://www.w3.org/2000/svg">
<path d="M20.6114 13.7386L14.7578 11.5756L12.6015 5.71742C12.4739 5.37052 12.2428 5.07115 11.9397 4.85968C11.6365 4.64821 11.2757 4.53482 10.9061 4.53482C10.5364 4.53482 10.1757 4.64821 9.87248 4.85968C9.5693 5.07115 9.33828 5.37052 9.21059 5.71742L7.04074 11.5756L1.1826 13.7318C0.835704 13.8595 0.536325 14.0905 0.324855 14.3937C0.113384 14.6969 0 15.0576 0 15.4273C0 15.7969 0.113384 16.1577 0.324855 16.4609C0.536325 16.764 0.835704 16.9951 1.1826 17.1227L7.04074 19.2926L9.19697 25.1507C9.32466 25.4976 9.55568 25.797 9.85886 26.0085C10.162 26.22 10.5228 26.3333 10.8924 26.3333C11.2621 26.3333 11.6228 26.22 11.926 26.0085C12.2292 25.797 12.4602 25.4976 12.5879 25.1507L14.7578 19.2926L20.6159 17.1364C20.9628 17.0087 21.2622 16.7777 21.4737 16.4745C21.6851 16.1713 21.7985 15.8105 21.7985 15.4409C21.7985 15.0712 21.6851 14.7105 21.4737 14.4073C21.2622 14.1041 20.9628 13.8731 20.6159 13.7454L20.6114 13.7386ZM13.7364 17.7288C13.6132 17.7742 13.5013 17.8458 13.4084 17.9387C13.3155 18.0315 13.2439 18.1435 13.1985 18.2667L10.8993 24.4959L8.60457 18.2712C8.55923 18.1467 8.48717 18.0336 8.39345 17.9399C8.29974 17.8462 8.18664 17.7741 8.06211 17.7288L1.83741 15.4341L8.06211 13.1394C8.18664 13.094 8.29974 13.022 8.39345 12.9283C8.48717 12.8346 8.55923 12.7215 8.60457 12.5969L10.8993 6.37223L13.1939 12.5969C13.2394 12.7202 13.311 12.8321 13.4038 12.925C13.4967 13.0178 13.6086 13.0894 13.7319 13.1349L19.9611 15.4341L13.7364 17.7288ZM14.5308 3.63155C14.5308 3.39076 14.6265 3.15984 14.7967 2.98957C14.967 2.81931 15.1979 2.72366 15.4387 2.72366H17.2545V0.907887C17.2545 0.6671 17.3501 0.436176 17.5204 0.265914C17.6906 0.0956521 17.9216 0 18.1624 0C18.4031 0 18.6341 0.0956521 18.8043 0.265914C18.9746 0.436176 19.0702 0.6671 19.0702 0.907887V2.72366H20.886C21.1268 2.72366 21.3577 2.81931 21.528 2.98957C21.6982 3.15984 21.7939 3.39076 21.7939 3.63155C21.7939 3.87233 21.6982 4.10326 21.528 4.27352C21.3577 4.44378 21.1268 4.53943 20.886 4.53943H19.0702V6.35521C19.0702 6.596 18.9746 6.82692 18.8043 6.99718C18.6341 7.16744 18.4031 7.2631 18.1624 7.2631C17.9216 7.2631 17.6906 7.16744 17.5204 6.99718C17.3501 6.82692 17.2545 6.596 17.2545 6.35521V4.53943H15.4387C15.1979 4.53943 14.967 4.44378 14.7967 4.27352C14.6265 4.10326 14.5308 3.87233 14.5308 3.63155ZM26.3333 9.07887C26.3333 9.31966 26.2377 9.55058 26.0674 9.72084C25.8972 9.8911 25.6662 9.98676 25.4254 9.98676H24.5176V10.8946C24.5176 11.1354 24.4219 11.3664 24.2516 11.5366C24.0814 11.7069 23.8505 11.8025 23.6097 11.8025C23.3689 11.8025 23.138 11.7069 22.9677 11.5366C22.7974 11.3664 22.7018 11.1354 22.7018 10.8946V9.98676H21.7939C21.5531 9.98676 21.3222 9.8911 21.1519 9.72084C20.9817 9.55058 20.886 9.31966 20.886 9.07887C20.886 8.83808 20.9817 8.60716 21.1519 8.4369C21.3222 8.26663 21.5531 8.17098 21.7939 8.17098H22.7018V7.2631C22.7018 7.02231 22.7974 6.79138 22.9677 6.62112C23.138 6.45086 23.3689 6.35521 23.6097 6.35521C23.8505 6.35521 24.0814 6.45086 24.2516 6.62112C24.4219 6.79138 24.5176 7.02231 24.5176 7.2631V8.17098H25.4254C25.6662 8.17098 25.8972 8.26663 26.0674 8.4369C26.2377 8.60716 26.3333 8.83808 26.3333 9.07887Z" fill="black"/>
</svg>
