<svg width="22" height="25" viewBox="0 0 22 25" fill="none" xmlns="http://www.w3.org/2000/svg">
<path d="M10.3086 0.128404C10.4344 0.0446726 10.5822 0 10.7333 0C10.8845 0 11.0322 0.0446726 11.1581 0.128404C14.0528 2.07987 17.3526 3.34913 20.8089 3.8406C20.9915 3.8668 21.1585 3.95797 21.2794 4.09739C21.4002 4.2368 21.4667 4.41512 21.4667 4.5996V11.4996C21.4667 17.4658 17.9293 21.8189 11.0093 24.4823C10.8317 24.5509 10.635 24.5509 10.4573 24.4823C3.53893 21.8189 0 17.4643 0 11.4996V4.5996C2.79857e-05 4.41489 0.066746 4.23639 0.187884 4.09694C0.309022 3.95749 0.476435 3.86646 0.659334 3.8406C4.11512 3.34891 7.41433 2.07966 10.3086 0.128404ZM10.1185 2.06347C7.48254 3.65711 4.57008 4.74012 1.53333 5.25587V11.4996C1.53333 16.7007 4.55093 20.4895 10.7333 22.9429C16.9157 20.4895 19.9333 16.7007 19.9333 11.4996V5.25587C16.8961 4.7403 13.9831 3.65729 11.3467 2.06347L10.7333 1.68167L10.1185 2.06347Z" fill="black"/>
</svg>
