<svg width="24" height="25" viewBox="0 0 24 25" fill="none" xmlns="http://www.w3.org/2000/svg">
<path d="M11.6495 0C11.0505 0 10.4554 0.20125 9.94271 0.56925L8.35571 1.67708L6.52721 1.91667H6.4975L6.46779 1.94638C5.8679 2.08138 5.31865 2.38385 4.88385 2.81864C4.44906 3.25344 4.14658 3.8027 4.01158 4.40258L3.98283 4.43229V4.462L3.74325 6.31925L2.63542 7.75675L2.60475 7.78646V7.81617C1.93487 8.88663 1.90517 10.2685 2.63542 11.2901L3.77296 12.8771L4.07292 14.5255L0.988042 19.2261L0 20.6943H4.58179L5.68963 23.2693L6.37867 24.9167L7.36671 23.4188L10.3912 18.8667C11.2039 19.2002 12.121 19.2309 12.9078 18.8667L15.9323 23.4188L16.9203 24.9167L17.6094 23.2693L18.7172 20.6943H23.299L22.311 19.2261L19.3162 14.675L19.5558 12.8781L20.6636 11.2911L20.6943 11.2614V11.2317C21.3641 10.1612 21.3938 8.809 20.6636 7.78742L19.5558 6.19946L19.1964 4.40258H19.2261C19.2223 4.37958 19.2002 4.36425 19.1964 4.34221C19.0239 3.08871 18.032 2.07096 16.7708 1.91667H16.7402L14.9433 1.67708L13.3563 0.56925C12.8608 0.205924 12.2639 0.00686276 11.6495 0ZM11.6495 1.94638C11.8699 1.94638 12.0875 2.01346 12.2485 2.12654L13.9553 3.35417L14.1651 3.50367L14.4047 3.53433L16.5015 3.83333H16.5303C16.9615 3.88125 17.2605 4.18121 17.3094 4.61246V4.67188L17.6995 6.79842L17.7282 7.00829L17.8787 7.1875L19.1063 8.89429C19.3353 9.21246 19.365 9.752 19.0766 10.212L17.7292 12.099L17.6985 12.3385L17.3995 14.4354V14.4641C17.3833 14.6138 17.3321 14.7576 17.25 14.8839L17.1896 14.9145V14.9433C17.0472 15.1144 16.8429 15.2222 16.6213 15.2433H16.561L14.375 15.6333L14.1354 15.662L13.9553 15.8125L12.2485 17.0401C11.9303 17.2692 11.361 17.2989 10.901 17.0104L9.34375 15.8125L9.16358 15.663L8.89429 15.6323L6.79746 15.3333H6.76871C6.63331 15.321 6.50282 15.2764 6.38813 15.2034C6.27344 15.1304 6.17786 15.031 6.10938 14.9136C6.04593 14.803 6.0052 14.6808 5.98958 14.5542V14.4948L5.6005 12.3088L5.56983 12.0693L5.42033 11.8891L4.19271 10.1823C3.96367 9.86413 3.93396 9.29488 4.22242 8.83488L5.42033 7.27758L5.56983 7.09742L5.59954 6.82813L5.86979 4.82138C5.87363 4.807 5.89567 4.807 5.8995 4.79167C5.95979 4.56124 6.08034 4.35102 6.24877 4.1826C6.41719 4.01418 6.62741 3.89363 6.85783 3.83333C6.87317 3.8295 6.87317 3.80746 6.88754 3.80363L8.89429 3.53338L9.13388 3.50463L9.34375 3.35417L11.0505 2.12654C11.2115 2.01442 11.4291 1.94638 11.6495 1.94638ZM18.2678 16.5312L19.7359 18.7776H17.4283L17.1887 19.3765L16.5303 20.9032L14.4938 17.7886L14.9423 17.4599L16.8303 17.1302V17.1599C16.8523 17.1561 16.8667 17.134 16.8897 17.1302C17.3941 17.0574 17.8706 16.8506 18.2678 16.5312ZM5.03125 16.561C5.44738 16.9393 5.97015 17.1799 6.52817 17.25H6.55788L8.38542 17.4896L8.80421 17.8193L6.76775 20.9032L6.10938 19.3765L5.86979 18.7776H3.56404L5.03125 16.561Z" fill="black"/>
</svg>
